<svg xmlns="http://www.w3.org/2000/svg" viewBox="0 0 700 200" width="220" height="70">
    <g>
        <g>
            <g>
                <g>
                    <g fill="#27a337">
                        <path style="fill:#09203F;" d="M204.958,302.353c0,0-11.372,0.438-8.551,14.545C207.693,313.763,204.958,302.353,204.958,302.353
				z"/>
                        <path style="fill:#09203F;" d="M184.812,307.668c11.665,1.065,13.147-10.574,13.147-10.574S187.169,293.475,184.812,307.668z"/>
                        <path style="fill:#09203F;" d="M173.714,307.833c10.419-5.353,5.433-15.974,5.433-15.974S168.097,294.588,173.714,307.833z"/>
                        <path style="fill:#09203F;" d="M161.469,296.718c11.565,1.853,13.833-9.66,13.833-9.66S164.782,282.718,161.469,296.718z"/>
                        <path style="fill:#09203F;" d="M148.215,309.778c11.713-0.092,12.039-11.821,12.039-11.821S149.16,295.422,148.215,309.778z"/>
                        <path style="fill:#09203F;" d="M154.864,291.058c0,0-9.478-6.299-15.445,6.792C150.405,301.911,154.864,291.058,154.864,291.058z
				"/>
                        <path style="fill:#09203F;" d="M128.66,295.123c11.452-2.459,9.399-14.012,9.399-14.012S126.681,280.873,128.66,295.123z"/>
                        <path style="fill:#09203F;" d="M135.596,275.477c0,0-9.03-6.927-15.87,5.73C130.413,286.004,135.596,275.477,135.596,275.477z"/>
                        <path style="fill:#09203F;" d="M154.774,283.496c10.161,5.828,16.358-4.135,16.358-4.135S162.83,271.577,154.774,283.496z"/>
                        <path style="fill:#09203F;" d="M144.616,279.022c11.701-0.525,11.594-12.258,11.594-12.258S145.029,264.641,144.616,279.022z"/>
                        <path style="fill:#09203F;" d="M180.454,248.432c0,0-8.496,7.573,2.656,16.662C189.823,255.495,180.454,248.432,180.454,248.432z
				"/>
                        <path style="fill:#09203F;" d="M175.106,236.598c0,0-11.33,1.075-7.721,15.002C178.477,247.837,175.106,236.598,175.106,236.598z
				"/>
                        <path style="fill:#09203F;" d="M86.203,240.101c0,0-8.496,7.573,2.656,16.662C95.572,247.164,86.203,240.101,86.203,240.101z"/>
                        <path style="fill:#09203F;" d="M72.252,251.147c11.092-3.763,7.721-15.002,7.721-15.002S68.643,237.221,72.252,251.147z"/>
                        <path style="fill:#09203F;" d="M191.529,266.469c10.314-5.552,5.125-16.075,5.125-16.075S185.66,253.334,191.529,266.469z"/>
                        <path style="fill:#09203F;" d="M150.975,261.672c11.612-1.539,10.486-13.219,10.486-13.219S150.137,247.31,150.975,261.672z"/>
                        <path style="fill:#09203F;" d="M142.745,266.821c8.978-7.523,1.768-16.78,1.768-16.78S134.341,255.144,142.745,266.821z"/>
                        <path style="fill:#09203F;" d="M133.339,255.475c0,0-11.22-1.908-11.357,12.478C133.672,267.204,133.339,255.475,133.339,255.475
				z"/>
                        <path style="fill:#09203F;" d="M154.997,244.088c11.706,0.409,12.534-11.295,12.534-11.295S156.554,229.786,154.997,244.088z"/>
                        <path style="fill:#09203F;" d="M143.926,244.876c10.102-5.929,4.528-16.254,4.528-16.254S137.575,231.966,143.926,244.876z"/>
                        <path style="fill:#09203F;" d="M292.846,156.413c0,0-2.576,11.085,11.776,12.083
				C304.574,156.782,292.846,156.413,292.846,156.413z"/>
                        <path style="fill:#09203F;" d="M278.349,151.702c0,0-5.626,9.893,7.847,14.937C289.486,155.397,278.349,151.702,278.349,151.702z
				"/>
                        <path style="fill:#09203F;" d="M296.744,185.146c5.408-10.39-4.799-16.175-4.799-16.175S284.505,177.583,296.744,185.146z"/>
                        <path style="fill:#09203F;" d="M270.884,155.719c0,0-8.766,7.259,2.049,16.747C279.99,163.118,270.884,155.719,270.884,155.719z"
                        />
                        <path style="fill:#09203F;" d="M256.513,168.941c0,0-3.51,10.826,10.705,13.041C268.167,170.307,256.513,168.941,256.513,168.941
				z"/>
                        <path style="fill:#09203F;" d="M319.375,270.863c0,0-8.134,8.456,0.012,16.872C328.961,276.997,319.375,270.863,319.375,270.863z
				"/>
                        <path style="fill:#09203F;" d="M334.06,285.645c5.151-13.433-5.987-15.775-5.987-15.775S323.461,280.659,334.06,285.645z"/>
                        <path style="fill:#09203F;" d="M343.548,291.405c11.548-8.581,3.4-16.526,3.4-16.526S337.272,281.515,343.548,291.405z"/>
                        <path style="fill:#09203F;" d="M352.692,272.684c0,0-3.871,11.077,7.042,15.333C363.963,274.265,352.692,272.684,352.692,272.684
				z"/>
                        <path style="fill:#09203F;" d="M357.467,305.064c6.452-12.859-4.399-16.289-4.399-16.289S347.413,299.056,357.467,305.064z"/>
                        <path style="fill:#09203F;" d="M312.171,329.267c-12.348-7.383-16.569,3.187-16.569,3.187S305.438,338.852,312.171,329.267z"/>
                        <path style="fill:#09203F;" d="M373.343,281.282c0,0-1.648,11.617,9.883,13.675C384.707,280.647,373.343,281.282,373.343,281.282
				z"/>
                        <path style="fill:#09203F;" d="M372.2,280.002c-0.915-14.358-12.015-11.846-12.015-11.846S360.488,279.886,372.2,280.002z"/>
                        <path style="fill:#09203F;" d="M379.43,264.845c0,0-6.031,10.065,3.795,16.44C390.148,268.673,379.43,264.845,379.43,264.845z"/>
                        <path style="fill:#09203F;" d="M363.404,264.627c6.495-12.837-4.345-16.303-4.345-16.303S353.369,258.585,363.404,264.627z"/>
                        <path style="fill:#09203F;" d="M372.338,236.452c0,0-8.596,7.987-0.934,16.846C381.565,243.114,372.338,236.452,372.338,236.452z
				"/>
                        <path style="fill:#09203F;" d="M325.788,288.452c0,0-9.802,6.45-3.717,16.458C333.781,296.552,325.788,288.452,325.788,288.452z"
                        />
                        <path style="fill:#09203F;" d="M285.147,337.674c11.71-8.357,3.716-16.458,3.716-16.458S279.061,327.665,285.147,337.674z"/>
                        <path style="fill:#09203F;" d="M308.248,345.199c0,0-7.29-9.195-16.722-2.25C300.884,353.877,308.248,345.199,308.248,345.199z"
                        />
                        <path style="fill:#09203F;" d="M295.577,360.343c0,0,3.246-11.276-7.888-14.915C284.237,359.394,295.577,360.343,295.577,360.343
				z"/>
                        <path style="fill:#09203F;" d="M384.171,246.395c0,0-6.883,9.503,2.353,16.708C394.515,251.14,384.171,246.395,384.171,246.395z"
                        />
                        <path style="fill:#09203F;" d="M391.014,271.709c13.159-5.816,6.968-15.366,6.968-15.366S387.079,260.677,391.014,271.709z"/>
                        <path style="fill:#09203F;" d="M392.493,249.215c5.897-13.123-5.092-16.086-5.092-16.086S382.191,243.642,392.493,249.215z"/>
                        <path style="fill:#09203F;" d="M401.104,252.185c12.011-7.919,4.322-16.309,4.322-16.309S395.393,241.958,401.104,252.185z"/>
                        <path style="fill:#09203F;" d="M412.005,233.89c0,0-3.381,11.236,7.708,15.009C423.334,234.976,412.005,233.89,412.005,233.89z"
                        />
                        <path style="fill:#09203F;" d="M256.879,61.971c-9.174,7.283-2.211,16.727-2.211,16.727S264.972,73.866,256.879,61.971z"/>
                        <path style="fill:#09203F;" d="M258.226,88.819c0,0,11.347-0.87,7.991-14.86C255.059,77.521,258.226,88.819,258.226,88.819z"/>
                        <path style="fill:#09203F;" d="M282.529,78.311c0,0,9.114-6.816-1.217-16.828C273.8,70.47,282.529,78.311,282.529,78.311z"/>
                        <path style="fill:#09203F;" d="M272.203,100.95c0,0,9.218-6.674-0.958-16.845C263.596,92.976,272.203,100.95,272.203,100.95z"/>
                        <path style="fill:#09203F;" d="M304.039,49.761c-10.752,4.646-6.485,15.576-6.485,15.576S308.76,63.351,304.039,49.761z"/>
                        <path style="fill:#09203F;" d="M291.612,59.044c0,0,6.929-9.028-5.727-15.871C281.086,53.859,291.612,59.044,291.612,59.044z"/>
                        <path style="fill:#09203F;" d="M314.024,58.787c-11.701,0.538-11.581,12.271-11.581,12.271S313.627,73.169,314.024,58.787z"/>
                        <path style="fill:#09203F;" d="M327.758,55.643c-9.59,6.725-3.2,16.566-3.2,16.566S335.13,67.997,327.758,55.643z"/>
                        <path style="fill:#09203F;" d="M341.405,64.981c-11.71-0.256-12.385,11.458-12.385,11.458S340.035,79.303,341.405,64.981z"/>
                        <path style="fill:#09203F;" d="M308.234,76.522c-11.628-1.411-13.456,10.179-13.456,10.179S305.456,90.638,308.234,76.522z"/>
                        <path style="fill:#09203F;" d="M348.134,124.254c-11.628-1.411-13.456,10.179-13.456,10.179S345.355,138.37,348.134,124.254z"/>
                        <path style="fill:#09203F;" d="M313.427,92.492c0,0,11.125-2.399,5.905-15.805C308.759,81.727,313.427,92.492,313.427,92.492z"/>
                        <path style="fill:#09203F;" d="M307.37,89.16c-10.56,5.069-5.863,15.821-5.863,15.821S312.626,102.552,307.37,89.16z"/>
                        <path style="fill:#09203F;" d="M299,116.694c0,0,4.875-10.283-8.936-14.312C287.62,113.837,299,116.694,299,116.694z"/>
                        <path style="fill:#09203F;" d="M299.235,148.619c0,0-3.506-10.827-16.319-4.286C288.994,154.346,299.235,148.619,299.235,148.619
				z"/>
                        <path style="fill:#09203F;" d="M293.696,135.057c0,0,6.838-9.097-5.886-15.813C283.12,129.977,293.696,135.057,293.696,135.057z"
                        />
                        <path style="fill:#09203F;" d="M315.722,111.402c0,0,10.875-3.356,4.51-16.259C310.137,101.083,315.722,111.402,315.722,111.402z
				"/>
                        <path style="fill:#09203F;" d="M325.807,87.196c-5.34,10.425,4.906,16.143,4.906,16.143S338.095,94.678,325.807,87.196z"/>
                        <path style="fill:#09203F;" d="M338.888,93.983c0,0,11.077-2.612,5.601-15.916C334.015,83.31,338.888,93.983,338.888,93.983z"/>
                        <path style="fill:#09203F;" d="M360.415,80.468c-10.941,4.182-7.145,15.285-7.145,15.285S364.551,94.247,360.415,80.468z"/>
                        <path style="fill:#09203F;" d="M335.425,124.602c0,0,8.717-7.317-2.159-16.734C326.271,117.263,335.425,124.602,335.425,124.602z
				"/>
                        <path style="fill:#09203F;" d="M333.732,146.924c0,0,4.069-10.628-10.012-13.581
				C322.165,144.952,333.732,146.924,333.732,146.924z"/>
                        <path style="fill:#09203F;" d="M97.702,258.52c10.102-5.929,4.528-16.254,4.528-16.254S91.352,245.611,97.702,258.52z"/>
                        <path style="fill:#09203F;" d="M69.792,199.538c3.637,11.134,14.914,7.891,14.914,7.891S83.759,196.088,69.792,199.538z"/>
                        <path style="fill:#09203F;" d="M65.599,207.349c0,0,4.643-10.39-9.255-14.108C54.157,204.749,65.599,207.349,65.599,207.349z"/>
                        <path style="fill:#09203F;" d="M78.493,187.541c-0.541,11.701,11.153,12.661,11.153,12.661S92.777,189.26,78.493,187.541z"/>
                        <path style="fill:#09203F;" d="M94.033,181.173c0,0-3.221-10.915-16.201-4.712C83.646,186.63,94.033,181.173,94.033,181.173z"/>
                        <path style="fill:#09203F;" d="M98.656,177.119c0,0,3.865-10.704-10.27-13.387C87.054,175.368,98.656,177.119,98.656,177.119z"/>
                        <path style="fill:#09203F;" d="M80.871,166.631c0,0,2.035-11.197-12.348-11.497C69.14,166.831,80.871,166.631,80.871,166.631z"/>
                        <path style="fill:#09203F;" d="M93.745,156.879c0,0,5.869-9.751-7.477-15.125C82.703,152.911,93.745,156.879,93.745,156.879z"/>
                        <path style="fill:#09203F;" d="M106.159,172.607c0,0,7.405-8.642-4.863-16.156C95.928,166.862,106.159,172.607,106.159,172.607z"
                        />
                        <path style="fill:#09203F;" d="M108.999,150.932c1.048,11.666,12.765,11.034,12.765,11.034S123.384,150.701,108.999,150.932z"/>
                        <path style="fill:#09203F;" d="M139.454,184.689c0,0-7.946-8.148-16.526,3.4C132.817,194.365,139.454,184.689,139.454,184.689z"
                        />
                        <path style="fill:#09203F;" d="M153.636,182.257c0,0-1.582-11.27-15.333-7.042C142.56,186.128,153.636,182.257,153.636,182.257z"
                        />
                        <path style="fill:#09203F;" d="M145.619,201.317c0,0-3.43-10.852-16.289-4.4C135.338,206.972,145.619,201.317,145.619,201.317z"
                        />
                        <path style="fill:#09203F;" d="M139.081,168.699c0,0,0.636-11.363-13.675-9.883C127.465,170.347,139.081,168.699,139.081,168.699
				z"/>
                        <path style="fill:#09203F;" d="M137.731,155.354c6.476,9.76,16.478,3.627,16.478,3.627S150.271,148.302,137.731,155.354z"/>
                        <path style="fill:#09203F;" d="M134.257,144.702c0,0-5.553-9.934-16.842-1.015C125.333,152.32,134.257,144.702,134.257,144.702z"
                        />
                        <path style="fill:#09203F;" d="M103.542,200.156c0,0,2.035-11.197-12.349-11.497C91.81,200.356,103.542,200.156,103.542,200.156z
				"/>
                        <path style="fill:#09203F;" d="M108.068,190.505c0,0,11.2-2.021,6.436-15.597C103.767,179.589,108.068,190.505,108.068,190.505z"
                        />
                        <path style="fill:#09203F;" d="M121.829,206.963c0,0,7.405-8.642-4.863-16.156C111.599,201.218,121.829,206.963,121.829,206.963z
				"/>
                        <path style="fill:#09203F;" d="M132.191,178.122c0,0,1.621-11.265-12.765-11.034
				C120.475,178.755,132.191,178.122,132.191,178.122z"/>
                        <path style="fill:#09203F;" d="M104.942,205.795c0,0-9.808-5.773-15.051,7.624C101.083,216.876,104.942,205.795,104.942,205.795z
				"/>
                        <path style="fill:#09203F;" d="M52.68,215.827c7.121,9.3,16.686,2.503,16.686,2.503S64.715,207.944,52.68,215.827z"/>
                        <path style="fill:#09203F;" d="M426.918,210.785c0,0-6.156,9.988,3.589,16.486C437.587,214.747,426.918,210.785,426.918,210.785z
				"/>
                        <path style="fill:#09203F;" d="M428.353,201.517c0,0,0.95,11.695,12.651,11.163C439.297,198.395,428.353,201.517,428.353,201.517
				z"/>
                        <path style="fill:#09203F;" d="M432.201,191.357c0,0,3.958,11.045,15.119,7.49C441.957,185.497,432.201,191.357,432.201,191.357z
				"/>
                        <path style="fill:#09203F;" d="M407.638,215.151c0,0-1.435,11.645,10.132,13.491
				C418.987,214.308,407.638,215.151,407.638,215.151z"/>
                        <path style="fill:#09203F;" d="M416.423,179.808c0,0,11.684-1.082,11.02-12.777C413.178,168.9,416.423,179.808,416.423,179.808z"
                        />
                        <path style="fill:#09203F;" d="M437.677,160.716c-11.592,8.52-3.486,16.508-3.486,16.508S443.902,170.639,437.677,160.716z"/>
                        <path style="fill:#09203F;" d="M409.192,174.874c0,0,10.543-5.15,5.781-15.851C402.294,165.822,409.192,174.874,409.192,174.874z
				"/>
                        <path style="fill:#09203F;" d="M398.181,158.746c0,0,11.661,1.303,13.376-10.284
				C397.209,147.407,398.181,158.746,398.181,158.746z"/>
                        <path style="fill:#09203F;" d="M369.495,168.886c0,0,11.661,1.303,13.375-10.284
				C368.523,157.547,369.495,168.886,369.495,168.886z"/>
                        <path style="fill:#09203F;" d="M392.4,156.652c0,0,10.17-5.852,4.694-16.206C384.904,148.089,392.4,156.652,392.4,156.652z"/>
                        <path style="fill:#09203F;" d="M382.42,138.362c-8.693,11.464,1.35,16.818,1.35,16.818S391.208,146.106,382.42,138.362z"/>
                        <path style="fill:#09203F;" d="M393.34,194.968c-8.692,11.464,1.35,16.818,1.35,16.818S402.128,202.712,393.34,194.968z"/>
                        <path style="fill:#09203F;" d="M366.441,181.372c0,0,11.298,3.166,14.859-7.993C367.31,170.025,366.441,181.372,366.441,181.372z
				"/>
                        <path style="fill:#09203F;" d="M365.419,201.382c0,0,11.634,1.526,13.57-10.026C364.664,190.026,365.419,201.382,365.419,201.382
				z"/>
                        <path style="fill:#09203F;" d="M355.209,186.442c0,0,0.717-11.712-10.941-12.844
				C343.933,187.981,355.209,186.442,355.209,186.442z"/>
                        <path style="fill:#09203F;" d="M334.87,183.308c0,0,8.689-7.885,1.132-16.834C325.722,176.538,334.87,183.308,334.87,183.308z"/>
                        <path style="fill:#09203F;" d="M403.55,164.686c-13.288,5.514-7.318,15.203-7.318,15.203S407.233,175.805,403.55,164.686z"/>
                        <path style="fill:#09203F;" d="M392.545,137.011c0,0,0.034-11.733-11.67-12.185C381.377,139.204,392.545,137.011,392.545,137.011
				z"/>
                        <path style="fill:#09203F;" d="M350.715,210.337c0,0,7.439-9.074-1.35-16.818C340.672,204.983,350.715,210.337,350.715,210.337z"
                        />
                        <path style="fill:#09203F;" d="M362.351,177.932c0,0,6.569-9.722-2.896-16.622C351.857,173.527,362.351,177.932,362.351,177.932z
				"/>
                        <path style="fill:#09203F;" d="M411.995,189.358c-9.759-10.57-16.794-1.624-16.794-1.624S402.828,196.65,411.995,189.358z"/>
                        <path style="fill:#09203F;" d="M434.786,182.031c-14.078-2.963-14.631,8.404-14.631,8.404S431.537,193.285,434.786,182.031z"/>
                        <path style="fill:#09203F;" d="M155.826,138.396c0,0,2.512-11.1-11.845-12.015C144.096,138.093,155.826,138.396,155.826,138.396z
				"/>
                        <path style="fill:#09203F;" d="M139.392,143.884c6.375,9.826,16.44,3.795,16.44,3.795S152.004,136.962,139.392,143.884z"/>
                        <path style="fill:#09203F;" d="M256.996,236.053c0,0,1.62-11.265-12.765-11.034C245.279,236.685,256.996,236.053,256.996,236.053
				z"/>
                        <path style="fill:#09203F;" d="M206.959,283.538c0,0,1.62-11.265-12.765-11.034C195.242,284.171,206.959,283.538,206.959,283.538
				z"/>
                        <path style="fill:#09203F;" d="M274.686,258.775c0,0-7.946-8.148-16.526,3.4C268.049,268.451,274.686,258.775,274.686,258.775z"
                        />
                        <path style="fill:#09203F;" d="M288.868,256.343c0,0-1.581-11.27-15.333-7.042C277.792,260.214,288.868,256.343,288.868,256.343z
				"/>
                        <path style="fill:#09203F;" d="M260.638,232.902c2.058,11.531,13.675,9.883,13.675,9.883S274.949,231.422,260.638,232.902z"/>
                        <path style="fill:#09203F;" d="M289.441,233.067c0,0-3.938-10.678-16.478-3.627C279.439,239.201,289.441,233.067,289.441,233.067
				z"/>
                        <path style="fill:#09203F;" d="M252.647,217.774c7.918,8.632,16.842,1.015,16.842,1.015S263.936,208.855,252.647,217.774z"/>
                        <path style="fill:#09203F;" d="M123.83,133.202c0,0-5.553-9.934-16.842-1.015C114.905,140.82,123.83,133.202,123.83,133.202z"/>
                        <path style="fill:#09203F;" d="M253.695,196.76c-10.738,4.68-6.436,15.597-6.436,15.597S258.458,210.335,253.695,196.76z"/>
                        <path style="fill:#09203F;" d="M267.423,252.209c0,0,1.62-11.265-12.765-11.033C255.707,252.842,267.423,252.209,267.423,252.209
				z"/>
                        <path style="fill:#09203F;" d="M281.026,192.836c0,0,6.955-9.008-5.68-15.887C270.515,187.62,281.026,192.836,281.026,192.836z"
                        />
                        <path style="fill:#09203F;" d="M291.064,221.766c0,0-3.828-10.718-16.44-3.795C280.999,227.797,291.064,221.766,291.064,221.766z
				"/>
                        <path style="fill:#09203F;" d="M238.807,201.928c2.338-11.478-9.069-14.228-9.069-14.228S224.959,198.029,238.807,201.928z"/>
                        <path style="fill:#09203F;" d="M188.026,135.892c-2.348,11.476,9.056,14.236,9.056,14.236S201.871,139.803,188.026,135.892z"/>
                        <path style="fill:#09203F;" d="M171.847,146.398c0,0,11.284,1.482,10.875-12.899C171.07,134.691,171.847,146.398,171.847,146.398
				z"/>
                        <path style="fill:#09203F;" d="M190.692,175.483c7.669,8.853,16.806,1.492,16.806,1.492S202.229,166.887,190.692,175.483z"/>
                        <path style="fill:#09203F;" d="M245.422,188.209c0,0,1.723-11.249-12.663-11.15C233.7,188.734,245.422,188.209,245.422,188.209z"
                        />
                        <path style="fill:#09203F;" d="M241.416,217.384c0,0-0.167-11.379-14.338-8.894C229.943,219.847,241.416,217.384,241.416,217.384
				z"/>
                        <path style="fill:#09203F;" d="M343.082,214.172c-11.631,1.386-10.659,13.079-10.659,13.079S343.73,228.544,343.082,214.172z"/>
                        <path style="fill:#09203F;" d="M321.083,199.574c0,0-4.779,10.328,9.069,14.228C332.489,202.325,321.083,199.574,321.083,199.574
				z"/>
                        <path style="fill:#09203F;" d="M334.75,196.079c0,0,1.724-11.249-12.663-11.15C323.029,196.604,334.75,196.079,334.75,196.079z"
                        />
                        <path style="fill:#09203F;" d="M321.584,216.66c-7.265,9.188,1.673,16.789,1.673,16.789S332.183,226.389,321.584,216.66z"/>
                        <path style="fill:#09203F;" d="M201.476,148.157c-1.341,11.636,10.259,13.395,10.259,13.395S215.609,150.85,201.476,148.157z"/>
                        <path style="fill:#09203F;" d="M265.319,104.142c0,0-0.704-11.359-14.741-8.208C253.975,107.143,265.319,104.142,265.319,104.142
				z"/>
                        <path style="fill:#09203F;" d="M198.169,131.37c5.104,10.543,15.84,5.811,15.84,5.811S211.544,126.071,198.169,131.37z"/>
                        <path style="fill:#09203F;" d="M129.645,121.656c-1.341,11.636,10.259,13.395,10.259,13.395S143.777,124.35,129.645,121.656z"/>
                        <path style="fill:#09203F;" d="M143.517,117.916c0,0-2.465-11.111-15.84-5.811C132.78,122.648,143.517,117.916,143.517,117.916z"
                        />
                        <path style="fill:#09203F;" d="M186.411,160.439c-11.629,1.398-10.645,13.09-10.645,13.09S187.073,174.811,186.411,160.439z"/>
                        <path style="fill:#09203F;" d="M184.201,182.371c-8.132,8.43,0.017,16.872,0.017,16.872S193.793,193.093,184.201,182.371z"/>
                        <path style="fill:#09203F;" d="M202.428,168.599c0,0,4.788-10.324-9.057-14.236C191.024,165.839,202.428,168.599,202.428,168.599
				z"/>
                        <path style="fill:#09203F;" d="M392.595,109.896c0,0-11.148-2.286-11.772,12.087
				C392.531,121.629,392.595,109.896,392.595,109.896z"/>
                        <path style="fill:#09203F;" d="M410.191,123.559c0,0-11.148-2.287-11.773,12.087
				C410.126,135.292,410.191,123.559,410.191,123.559z"/>
                        <path style="fill:#09203F;" d="M343.853,166.549c11.708-0.354,11.773-12.087,11.773-12.087S344.476,152.176,343.853,166.549z"/>
                        <path style="fill:#09203F;" d="M379.726,101.563c0,0-5.849-9.762-16.865-0.508C371.034,109.446,379.726,101.563,379.726,101.563z
				"/>
                        <path style="fill:#09203F;" d="M359.477,127.688c-0.289,11.71,11.422,12.418,11.422,12.418S373.795,129.1,359.477,127.688z"/>
                        <path style="fill:#09203F;" d="M367.996,153.483c0,0,1.281-11.308-13.091-10.645
				C356.303,154.467,367.996,153.483,367.996,153.483z"/>
                        <path style="fill:#09203F;" d="M379.31,113.23c0,0-4.98-10.234-16.757-1.971C369.966,120.327,379.31,113.23,379.31,113.23z"/>
                        <path style="fill:#09203F;" d="M262.747,138.684c0,0-5.27-10.087-16.806-1.492C253.611,146.046,262.747,138.684,262.747,138.684z
				"/>
                        <path style="fill:#09203F;" d="M270.259,122.933c0,0,3.873-10.701-10.259-13.395
				C258.658,121.174,270.259,122.933,270.259,122.933z"/>
                        <path style="fill:#09203F;" d="M261.947,130.978c0,0,4.788-10.324-9.057-14.236C250.543,128.218,261.947,130.978,261.947,130.978
				z"/>
                        <path style="fill:#09203F;" d="M224.97,79.574c0,0,9.33-6.517-0.671-16.859C216.5,71.454,224.97,79.574,224.97,79.574z"/>
                        <path style="fill:#09203F;" d="M368.234,94.373c0,0,9.33-6.517-0.671-16.859C359.763,86.253,368.234,94.373,368.234,94.373z"/>
                        <path style="fill:#09203F;" d="M154.732,102.1c0,0,7.405-8.642-4.863-16.156C144.501,96.355,154.732,102.1,154.732,102.1z"/>
                        <path style="fill:#09203F;" d="M195.538,62.662c-8.229,8.336-0.178,16.871-0.178,16.871S205.006,73.494,195.538,62.662z"/>
                        <path style="fill:#09203F;" d="M179.407,116.697c1.597,11.604,13.27,10.42,13.27,10.42S193.765,115.788,179.407,116.697z"/>
                        <path style="fill:#09203F;" d="M177.739,105.229c0,0,7.583-8.487-4.528-16.253C167.63,99.274,177.739,105.229,177.739,105.229z"
                        />
                        <path style="fill:#09203F;" d="M167.255,114.259c-3.795,11.081,7.163,15.277,7.163,15.277S180.486,119.908,167.255,114.259z"/>
                        <path style="fill:#09203F;" d="M201.407,97.102c0,0,9.084-6.855-1.289-16.823C192.645,89.299,201.407,97.102,201.407,97.102z"/>
                        <path style="fill:#09203F;" d="M210.236,109.778c0,0,11.287-1.457,7.211-15.254C206.488,98.659,210.236,109.778,210.236,109.778z
				"/>
                        <path style="fill:#09203F;" d="M217.077,90.647c0,0,3.996-10.656-10.104-13.512C205.497,88.754,217.077,90.647,217.077,90.647z"
                        />
                        <path style="fill:#09203F;" d="M174.707,76.627c-10.509-5.174-16.063,5.161-16.063,5.161S167.421,89.032,174.707,76.627z"/>
                        <path style="fill:#09203F;" d="M149.56,121.898c0,0,11.381,0.071,9.192-14.149C147.338,110.377,149.56,121.898,149.56,121.898z"
                        />
                        <path style="fill:#09203F;" d="M181.889,54.226c-8.229,8.336-0.178,16.872-0.178,16.872S191.358,65.058,181.889,54.226z"/>
                        <path style="fill:#09203F;" d="M236.876,77.542c-8.866,7.654-1.52,16.804-1.52,16.804S245.452,89.093,236.876,77.542z"/>
                        <path style="fill:#09203F;" d="M222.106,88.11c-3.383,11.214,7.722,15.002,7.722,15.002S235.537,93.267,222.106,88.11z"/>
                    </g>
                    <g>
                        <path style="fill:#09203F;" d="M307.698,281.987c-0.525-1.182-1.196-2.219-2.146-2.649c-2.04-0.925-4.475,0.524-5.874,2.261
				c-4.058,5.038-5.908,13.976-5.446,26.034c6.262-6.551,8.351-15.182,12.25-23.35C306.844,283.524,307.258,282.756,307.698,281.987
				z"/>
                        <path style="fill:#09203F;" d="M189.902,236.406c3.546,1.348,5.433,3.177,7.024,6.184c-0.459-2.817-1.135-5.538-1.93-7.546
				c-2.191-5.537-7.97-10.641-17.176-15.171c-10.522-5.178-20.978-0.751-30.211,5.057c7.066-1.026,14.264,1.228,21.42,2.778
				c3.988,0.864,13.026,1.428,15.736,4.97c-2.07,0.926-4.405,0.223-6.207,1.554C181.193,236.171,186.592,235.147,189.902,236.406z"
                        />
                        <path style="fill:#09203F;" d="M265.049,376.783c-1.693-1.227-3.444-2.495-5.185-3.638c-2.79-1.83-6.846-4.181-9.846-3.425
				c-1.282,0.321-2.291,1.185-3.082,2.639c-1.656,3.04-0.257,8.896,3.939,16.491c4.403,7.971,15.317,17.032,25.848,19.557
				c-1.1-2.972-2.028-6.045-2.709-9.313c-5.987-2.824-15.337-8.58-14.81-13.161c0.126-1.096,0.824-2.908,4.049-2.908
				c0.06,0,0.122,0,0.184,0.002c2.305,0.048,5.761,1.099,9.323,2.57c-0.027-1.242-0.048-2.486-0.075-3.731
				c-0.923-0.489-1.855-1.042-2.803-1.675C268.244,379.098,266.62,377.921,265.049,376.783z"/>
                        <path style="fill:#09203F;" d="M197.038,115.698c7.136,2.506,12.616,7.107,16.502,12.91c0.094,0.093,0.191,0.174,0.285,0.271
				l1.018,1.043c0.941,0.961,1.915,1.956,2.879,3.008c0.444,0.484,0.898,0.969,1.356,1.457c3.659,3.9,7.442,7.934,7.791,13.636
				c0.229,3.752-0.883,7.982-3.134,11.909c-1.749,3.054-3.94,5.017-6.047,6.683c-0.642,0.508-1.387,1.264-2.176,2.063
				c-0.449,0.455-0.902,0.913-1.359,1.352c-3.2,5.659-7.072,11.043-10.195,16.301c-1.203,2.025-2.303,4.114-3.276,6.251
				c0.156,2.632,0.611,5.412,1.166,7.773c1.139,4.85,2.915,8.706,5.427,11.79c3.869,4.749,6.675,8.575,7.556,14.584
				c1.843,12.566,8.461,21.232,19.671,25.755c3.619,1.46,7.509,2.119,11.355,2.636c-1.172-3.715-1.05-7.508-0.682-11.957
				c-2.136,1.059-5.574,8.778-6.594,1.802c-0.698-4.771,1.532-7.088-1.343-12.034c-2.057-3.54-4.605-6.693-7.01-9.971
				c-0.812-0.813-1.653-1.635-2.52-2.481c-7.029-6.866-14.996-14.648-14.503-25.273c0.158-3.401,1.562-10.401,5.745-12.545
				c1.776-0.911,3.164-0.544,4.014-0.078c0.436,0.24,0.836,0.581,1.212,0.979c1.002-3.186,2.298-6.26,3.842-9.138
				c2.253-4.199,4.604-9.517,9.747-10.261c4.098-0.593,14.528,6.138,17.051,1.281c-1.28-0.357-2.78-0.102-4.023-0.509
				c-1.673-0.548-2.432-2.049-4.392-2.21c1.712-6.228,11.352-6.333,16.226-8.431c6.917-2.978,12.679-9.352,16.082-15.919
				c5.662-10.925,3.651-21.814,5.688-33.329c1.599-9.045,9.52-18.102,9.288-27.315c-6.421,6.519-13.619,15.145-16.251,24.049
				c-3.208,10.854-2.257,23.266-8.401,33.083c-4.866,7.774-11.897,10.183-20.275,12.394c-3.654,0.964-5.993,1.289-6.058-2.926
				c-0.049-3.213,0.778-6.523,1.499-9.63c1.364-5.886,3.27-11.599,4.907-17.406c-3.497-0.099-7.486,6.523-8.444,9.309
				c-1.433,4.168-0.946,8.647-1.667,12.937c-0.536,3.188-2.264,8.076-5.144,9.884c-1.538-4.776-2.602-11.175-2.324-16.25
				c0.324-5.924,2.002-11.845,5.572-16.554c3.129-4.127,6.593-8.916,8.152-13.88c2.51-7.995,2.97-18.275,1.768-26.531
				c-3.582,3.446-2.732,11.393-3.226,16.042c-0.545,5.132-2.622,10.035-6.555,13.536c-3.335,2.969-6.789,5.184-9.857,8.5
				c-3.321,3.591-3.531,6.524-5.152,10.679c-2.138-0.06-6.243-6.75-8.234-8.356c-7.195-5.805-17.835-8.46-23.35-16.023
				c-2.549-3.496-4.673-8.155-6.437-12.17c-1.584-3.605-1.895-11.388-5.16-13.699c-0.343,5.555-0.493,11.77,2.014,16.811
				c3.153,6.34,10.232,9.715,12.357,16.475c0.165,0.522,0.053,0.92-0.333,1.194c-7.523-1.021-14.033,1.895-21.145-1.657
				c-3.433-1.714-6.686-6.215-10.751-6.013C166.18,115.099,186.085,111.852,197.038,115.698z"/>
                        <path style="fill:#09203F;" d="M262.306,385.11c-0.894,0.185-1.063,0.615-1.114,1.052c-0.336,2.919,6.885,7.74,12.377,10.533
				c-0.462-2.947-0.649-5.9-0.747-8.861c-3.599-1.595-7.187-2.815-9.521-2.815C262.937,385.019,262.604,385.048,262.306,385.11z"/>
                        <path style="fill:#09203F;" d="M348.574,251.925c-2.301,0.667-4.607,1.176-6.698,1.632l-1.384,0.305
				c-2.593,0.577-5.25,1.092-8.063,1.638c-10.3,1.996-20.95,4.061-29.032,9.336c-7.555,4.932-9.526,13.055-11.433,20.91
				c-1.452,5.985-2.147,12.439-2.635,17.962c-0.117,1.325-0.213,2.643-0.31,3.955c-0.114,1.556-0.244,3.149-0.396,4.742
				c1.072-0.822,2.137-1.652,3.18-2.505c0.178-0.146,0.338-0.3,0.51-0.449c-0.761-13.575,1.18-23.362,5.807-29.106
				c1.93-2.396,5.231-4.196,8.257-2.829c1.109,0.502,1.906,1.386,2.532,2.445c0.814-1.314,1.658-2.613,2.427-3.856
				c2.443-3.95,5.83-6.48,9.789-8.93c9.543-5.906,15.838-2.285,25.408-0.427c-2.335-2.971-5.397-3.907-8.25-5.94
				C341.207,257.129,345.004,254.645,348.574,251.925z"/>
                        <path style="fill:#09203F;" d="M289.585,196.437c-6.591-3.239-12.437,3.775-19.598,1.522c-3.371-1.061-5.681-2.661-7.164-5.741
				c-0.848-1.761-0.804-4.711-2.712-5.318c-1.169,19.411,19.814,14.125,29.927,23.651c8.781,8.272,9.222,23.403,7.06,34.645
				c-0.968,5.034-2.658,9.215-7.159,12.076c-2.16,1.373-4.792,1.688-6.915,3.053c-2.809,1.807-3.681,5.163-6.1,7.387
				c-9.723,8.943-21.268,2.387-28.074-6.82c-0.91-1.232-1.615-2.439-2.17-3.644c-4.32-0.559-8.741-1.219-12.927-2.908
				c-11.916-4.809-18.948-14.001-20.901-27.321c-0.807-5.503-3.463-9.112-7.128-13.61c-2.708-3.325-4.613-7.445-5.824-12.597
				c-0.209-0.89-0.547-2.46-0.824-4.334c-1.467,4.003-2.425,8.145-2.678,12.351c3.858,4.466,7.154,9.522,10.102,15.526
				c1.692,3.445,2.406,6.971,3.097,10.38c0.97,4.787,1.886,9.309,5.335,13.526c4.207,5.145,9.875,7.302,15.876,9.585
				c1.742,0.663,3.544,1.348,5.304,2.11c9.485,4.109,19.066,13.09,24.408,22.877c6.633,12.155,9.857,24.751,9.857,38.506
				c0,2.692-0.136,5.257-0.269,7.737c-0.045,0.854-0.09,1.701-0.129,2.545c0.226-0.508,0.467-1.02,0.725-1.536
				c3.133-6.273,8.841-10.856,14.321-14.962c0.474-0.355,0.948-0.716,1.423-1.073c0.253-2.169,0.419-4.386,0.576-6.534
				c0.097-1.322,0.194-2.65,0.312-3.985c0.194-2.194,0.423-4.536,0.716-6.938c-5.483-8.132-6.442-16.087-2.917-24.305
				c1.961-4.572,5.481-8.557,8.886-12.41c5.326-6.029,10.357-11.724,9.973-19.474c-0.235-4.73-1.357-9.506-2.443-14.125
				c-1.497-6.372-3.046-12.96-2.376-19.708c0.57-5.733,2.833-11.154,7.338-17.577c3.297-4.701,3.901-10.308,3.005-15.414
				c-0.831,3.194-2.545,6.186-4.502,8.798c-1.977,2.638-11.145,15.25-12.12,6.359C290.292,190.405,289.665,193.435,289.585,196.437z
				"/>
                        <path style="fill:#09203F;" d="M218.675,337.089c0.889,1.734,1.785,3.499,2.623,5.296c0.52,1.116,0.923,2.478,1.311,3.793
				c0.472,1.599,0.957,3.237,1.633,4.41c1.379-2.504,1.455-8.281,0.866-13.145c-0.551-4.546-2.684-8.97-4.99-12.599
				c-0.15,3.68-0.632,7.38-1.241,11.163C218.818,336.37,218.747,336.729,218.675,337.089z"/>
                        <path style="fill:#09203F;" d="M231.236,355.926c-2.269,21.495,14.923,43.146,32.967,55.07
				c4.776,3.155,10.007,5.799,15.548,7.854c0.546,0.203,1.168,0.414,1.833,0.631c-1.43-2.93-2.784-5.832-3.986-8.808
				c-11.706-2.19-23.718-12.246-28.474-20.856c-3.21-5.811-6.5-13.722-3.945-18.415c1.059-1.944,2.523-3.163,4.352-3.622
				c3.719-0.926,8.062,1.484,11.429,3.693c1.78,1.167,3.55,2.449,5.262,3.689c1.555,1.127,3.163,2.292,4.77,3.364
				c0.548,0.366,1.09,0.696,1.63,1.009c-0.101-3.14-0.304-6.291-0.817-9.458c-5.203-3.731-9.373-9.21-12.781-14.164
				c-3.998-5.81-6.415-12.899-7.837-22.988c-0.667-4.732,0.249-10.631,1.22-16.876c1.954-12.57,3.974-25.567-5.936-31.817
				c-5.104-3.219-11.355-4.83-17.401-6.388c-1.014-0.262-2.021-0.522-3.016-0.787c-4.975-1.326-9.652-3.482-13.413-6.12
				c0.123,0.237,0.253,0.473,0.374,0.711c-0.109,5.387-0.801,10.821-0.266,16.181c0.025,0.253,0.077,0.503,0.107,0.755
				c-0.482-0.097-0.938-0.173-1.332-0.205c-5.331-0.437-10.253-0.673-15.337-2.178c-7.775-2.301-12.05-5.79-13.192-13.911
				c-3.673,1.065-0.332,7.251,0.599,9.887c-9.624-0.735-15.497-18.099-16.74-25.475c-4.828,0.27,1.835,12.714,2.882,15.488
				c2.423,6.416,5.575,11.685,11.672,15.63c5.193,3.36,11.442,3.304,16.723,5.831c5.473,2.618,11.769,7.354,16.135,11.429
				c1.663,1.552,3.023,3.147,4.18,4.783c0.057,0.215,0.107,0.43,0.162,0.645c5.233,4.25,9.674,8.551,12.369,16.436
				c2.632,7.701,1.551,17.365,0.597,25.892C231.457,353.885,231.342,354.916,231.236,355.926z M236.469,289.607
				c0.727-0.896,1.766-1.386,3.008-1.416c2.034-0.05,4.483,1.183,6.192,3.141c3.265,3.74,3.181,8.362,2.833,11.514
				c-0.472,4.277-1.545,6.678-3.376,7.555c-0.467,0.224-0.965,0.335-1.49,0.335c-0.929,0-1.945-0.349-3.038-1.045
				c-3.176-2.025-5.585-7.504-6.248-9.136C232.54,296.098,233.113,293.126,236.469,289.607z"/>
                        <path style="fill:#09203F;" d="M241.673,308.003c1.089,0.694,1.961,0.896,2.589,0.594c0.768-0.368,1.781-1.702,2.252-5.97
				c0.487-4.413-0.261-7.584-2.352-9.98c-1.27-1.456-3.135-2.456-4.564-2.456c-0.024,0-0.048,0-0.072,0.001
				c-0.665,0.016-1.162,0.243-1.52,0.695l-0.062,0.071c-2.835,2.961-3.258,5.109-1.741,8.845
				C237.453,302.878,239.546,306.647,241.673,308.003z"/>
                        <path style="fill:#09203F;" d="M211.846,358.308c-2.615,14.051,7.124,26.716,6.291,40.663c-0.339,5.671-2.59,12.149-5.697,17.958
				c0.467,0.379,0.893,0.789,1.297,1.184c1.308,1.276,2.393,2.369,4.603,2.357c2.995-0.03,6.181-2.324,8.522-6.135
				c4.221-6.869,3.672-15.412,2.579-22.862c-1.125-7.661-2.569-12.86-6.975-18.39c-5.143-6.453-7.405-10.418-8.103-18.272
				c-0.134-1.511-0.169-2.992-0.145-4.463C213.236,352.961,212.352,355.59,211.846,358.308z"/>
                        <path style="fill:#09203F;" d="M314.277,449.513l-0.123-0.013c-2.498-0.263-5.08-0.533-7.635-0.889
				c-3.646-0.505-6.902-1.995-10.051-3.436c-1.121-0.513-2.28-1.043-3.437-1.52c-8.243-3.394-14.821-4.213-20.111-2.503
				c-0.76,0.246-1.05,0.457-1.148,0.549c0.237,0.499,1.74,1.498,2.566,2.047c1.745,1.16,3.618,2.232,5.429,3.267
				c0.881,0.505,1.762,1.009,2.633,1.525c0.78,0.461,1.544,0.937,2.303,1.418c12.451,1.129,24.354,5.681,37.187,4.869
				C321.266,451.31,317.685,450.275,314.277,449.513z"/>
                        <path style="fill:#09203F;" d="M256.856,447.791c-3.344-2.458-6.803-5-10.256-7.283c-5.236-3.462-9.354-4.753-15.173-4.753
				c-0.019,0-0.037,0-0.056,0c-7.902,0.012-13.359,3.83-19.136,7.873c-4.431,3.101-9.012,6.307-14.828,7.749
				c-3.89,0.965-7.786,0.21-11.554-0.518c-2.799-0.541-5.692-1.093-8.556-0.946c2.984,0.634,6.072,1.841,9.673,3.601
				c7.345,3.59,17.831,3.962,25.969,2.537c9.573-1.676,17.339-6.346,27.406-4.409c5.874,1.13,11.741,2.952,17.926,2.109
				c1.776-0.242,3.486-0.685,5.183-1.183C261.231,451.003,259.036,449.393,256.856,447.791z"/>
                        <path style="fill:#09203F;" d="M349.624,228.975c-5.318,4.706-11.999,3.902-18.014,6.694c0.891,0.151,1.765,0.34,2.597,0.523
				c1.071,0.235,2.083,0.457,3.033,0.586c4.016,0.542,8.215-0.225,11.233-2.057c5.183-3.145,6.737-8.98,5.935-14.785
				C353.945,223.18,352.718,226.236,349.624,228.975z"/>
                        <path style="fill:#09203F;" d="M410.434,202.471c-5.113,2.632-7.682,6.503-11.931,9.949c-3.594,2.915-9.614,3.197-14.087,3.863
				c-4.197,0.625-7.707,2.085-11.415,3.093c-1.035-4.641,3.809-7.042,6.625-9.575c3.098-2.786,4.793-5.721,6.006-9.696
				c1.395-4.568,0.782-9.31,1.679-13.913c0.685-3.511,1.242-7.109,1.994-10.619c0.835-3.901,3.923-7.672,4.532-11.308
				c1.254-7.491-4.542,2.779-5.625,4.717c-2.818,5.044-5.325,9.501-6.291,15.338c-0.916,5.535,0.194,11.651-2.161,16.937
				c-2.003,4.497-6.478,4.691-10.156,7.35c-2.34,1.692-6.487,7.18-8.874,4.563c-2.103-2.307-0.465-8.963-0.037-11.648
				c0.604-3.785,1.381-7.493,2.999-10.971c0.554-1.191,5.179-8.935,0.721-6.011c-2.115,1.387-3.793,7.595-5.119,9.899
				c-2.113,3.671-4.03,7.509-4.496,11.763c-0.263,2.4-0.198,4.792-0.152,7.135c3.384,8.143,2.797,18.28-5.135,23.094
				c-3.398,2.062-8.086,2.934-12.54,2.328c-1.03-0.14-2.13-0.381-3.193-0.614c-1.802-0.395-3.556-0.776-5.154-0.776
				c-2.376,1.526-5.107,3.378-7.582,3.451c-4.488,0.134-6.163-7.206-7.364-10.318c-1.799-4.661-5.398-9.936-5.602-15.039
				c-0.244-6.135,1.762-11.136,5.272-16.331c3.08-4.558,3.616-7.927,4.713-13.218c2.003-9.662,9.061-17.168,16.451-23.188
				c9.018-7.347,16.43-11.666,18.146-24.012c0.68-4.888,1.264-9.974,2.612-14.787c1.008-3.6,2.846-6.836,2.443-10.68
				c-2.297,0.242-3.145,3.993-4.674,5.474c-2.646-6.94,0.507-16.828-3.036-23.376c-3.776,4.435-1.884,10.75-1.121,16.076
				c0.963,6.722,2.001,15.238,0.38,21.87c-1.554,6.355-5.932,11.67-11.381,15.154c-4.118,2.632-9.495,3.167-13.242,6.195
				c-1.788,1.444-4.72,8.472-6.65,8.555c-2.395,0.102-3.366-6.152-3.611-7.806c-1.307-8.802,1.745-14.48,5.817-21.941
				c1.808-3.312,9.27-15.196,4.609-18.081c-1.817,2.047-2.001,5.656-3.314,8.196c-1.402,2.714-3.665,5.22-5.369,7.746
				c-1.742,2.583-4.094,4.949-4.967,8.023c-0.695,2.449-0.248,5.476-1.498,7.588c-4.716-2.925-3.515-13.986-2.683-18.472
				c1.137-6.123,3.53-13.669,0.432-19.568c0.869,7.471-4.251,16.4-5.182,23.938c-0.786,6.365-0.349,12.81,1.417,18.981
				c1.561,5.454,5.559,10.379,6.286,15.973c2.623,6.739,3.083,15.446-1.776,22.374c-4.298,6.126-6.452,11.254-6.986,16.626
				c-0.638,6.417,0.872,12.84,2.332,19.053c1.106,4.706,2.25,9.571,2.493,14.484c0.425,8.563-5.114,14.833-10.471,20.896
				c-3.3,3.735-6.712,7.599-8.547,11.876c-2.951,6.877-2.457,13.578,1.497,20.412c0.4-2.744,0.897-5.521,1.551-8.215
				c1.998-8.234,4.064-16.749,12.283-22.113c8.41-5.49,19.255-7.593,29.744-9.626c2.799-0.542,5.443-1.055,8.009-1.627l1.392-0.306
				c3.577-0.78,7.823-1.711,11.458-3.376c1.063-1.064,2.05-2.221,2.916-3.528c5.56-8.389,11.14-12.887,21.301-14.539
				c3.845-0.625,8.973-1.262,12.376-3.092c4.68-2.517,8.077-8.161,11.555-11.989c6.014-6.618,14.945-10.762,21.728-16.768
				C418.388,198.902,414.402,200.427,410.434,202.471z"/>
                        <path style="fill:#09203F;" d="M345.644,450.091c1.603-0.068,3.132-0.234,4.616-0.442c-1.306-0.773-2.602-1.642-3.877-2.634
				c-1.373-1.069-2.729-2.403-4.041-3.693c-2.283-2.245-4.643-4.566-7.174-5.608c-3.676-1.515-8.034-2.072-11.954-1.535
				c-3.686,0.506-6.936,2.02-10.377,3.623c-1.325,0.617-2.696,1.256-4.102,1.837c-0.457,0.189-0.916,0.389-1.377,0.59
				c-1.616,0.705-3.287,1.433-5.047,1.772c-0.638,0.122-1.4,0.2-2.138,0.275c-0.207,0.021-0.44,0.045-0.677,0.072
				c2.378,1.043,4.729,1.928,7.298,2.284c2.522,0.35,5.087,0.619,7.568,0.88l0.536,0.057c2.187,0.229,4.622,0.19,7.202,0.152
				c2.109-0.034,4.289-0.068,6.352,0.058c2.206,0.133,4.381,0.623,6.485,1.097c1.594,0.359,3.242,0.73,4.856,0.932
				c0.014,0.002,0.028,0.005,0.042,0.007C341.721,450.04,343.634,450.177,345.644,450.091z"/>
                        <path style="fill:#09203F;" d="M140.636,227.181c10.956-7.631,24.232-15.911,38.066-9.104
				c9.666,4.757,15.773,10.218,18.153,16.23c1.381,3.488,2.422,9.001,2.656,13.643c2.264,4.449,4.838,8.617,7.445,12.96
				c1.041,1.734,2.056,3.452,3.035,5.168c0.12,0.13,0.223,0.275,0.35,0.399c3.86,3.777,9.775,6.93,16.228,8.65
				c0.989,0.264,1.991,0.521,3,0.781c6.194,1.597,12.6,3.248,17.968,6.634c11.021,6.95,8.803,21.223,6.846,33.815
				c-0.947,6.095-1.842,11.852-1.216,16.29c1.377,9.766,3.692,16.593,7.504,22.135c2.917,4.239,6.399,8.868,10.575,12.344
				c-0.274-1.324-0.561-2.63-0.859-3.905c0.301-1.155,0.638-2.28,1.031-3.327c2.2-5.863,5.478-9.719,10.356-13.456
				c3.154-2.416,6.725-4.302,9.64-7.025c0.663-0.62,3.104-2.156,3.286-3.092c0.28-1.444-1.077-0.902-2.06-0.447
				c-1.953,0.905-3.749,2.279-5.581,3.419c-2.969,1.848-5.776,3.726-8.559,5.775c0.723-3.504,2.311-8.831,1.57-10.693
				c-1.743,2.91-3.625,7.967-4.357,9.545c-0.622,1.34-1.354,3.034-1.825,4.667c-1.973,1.456-4.006,2.759-5.869,4.132
				c-0.89-4.865-1.228-9.652-0.123-14.762c-0.101-2.992,0.053-5.951,0.214-8.987c0.131-2.454,0.266-4.992,0.266-7.631
				c0-13.412-3.145-25.693-9.613-37.548c-5.142-9.421-14.345-18.056-23.447-21.999c-1.719-0.745-3.498-1.422-5.22-2.077
				c-5.982-2.275-12.168-4.629-16.714-10.188c-3.761-4.601-4.77-9.58-5.746-14.395c-0.665-3.285-1.354-6.682-2.932-9.895
				c-2.873-5.85-6.08-10.77-9.83-15.111c-5.367-2.134-10.698-4.574-16.259-4.615c-1.459-0.011-2.7,0.049-3.788,0.159
				c-0.203-2.275,0.273-4.533,1.208-8.007c-2.717,1.681-4.941,5.497-7.37,8.984c-0.17,0.009-0.331,0.012-0.514,0.03
				c-2.439,0.24-7.803,2.47-9.883-0.257c-1.782-2.337-0.118-6.934,0.881-9.306c1.267-3.011,3.877-4.26,5.996-6.59
				c1.941-2.134,3.075-4.327,3.639-7.184c0.423-2.141,0.249-4.424,0.137-6.674c-0.058-1.173-0.076-2.352-0.081-3.533
				c1.027-3.209,2.542-6.254,4.409-9.63c2.441-4.414,3.736-8.617,3.728-13.746c-0.571,3.713-3.201,6.963-5.445,9.912
				c-1.489,1.955-2.174,3.777-2.782,5.696c-0.166-3.106-0.616-6.169-1.825-9.12c-3.024-7.376-1.535-15.192-3.762-22.547
				c-7.432,9.001-0.094,21.736,0.923,31.487c0.553,5.296,0.461,11.024-1.647,16.016c-1.578-1.862-4.192-4.05-4.817-5.293
				c-1.045-2.077-1.785-4.329-2.514-6.5c-0.513-1.526-0.97-4.772-2.095-5.635c-2.802,2.311,0.762,9.584,2.112,12.009
				c2.145,3.851,3.55,6.854,4.016,10.786c-2.247,2.801-4.897,5.286-6.906,8.293c-2.288,3.425-3.167,10.032-6.009,12.625
				c-2.302,2.1-22.113,2.842-25.011,2.304c-3.727-0.692-6.983-2.431-9.797-5.172c-3.6-3.507-3.206-7.137-5.098-11.511
				c-2.973,10.345,3.474,20.074,13.035,23.791c-2.622,4.753-11.357,5.016-15.961,6.942c-6.645,2.779-11.897,7.729-19.566,5.069
				c-4.972-1.725-7-6.185-9.15-10.686c-1.406-2.943-2.294-8.4-5.966-9.093c2.825,5.593,3.939,10.992,5.838,16.92
				c3.736,11.659,18.868,13.777,29.493,12.072c3.389-0.544,6.209-2.195,9.114-3.872c4.699-2.714,9.673-4.833,14.61-6.632
				c-3.678,8.283-7.988,17.006-17.227,20.391c3.446,3.215,11.697-5.568,14.33-7.351c0.154,12.466-18.517,18.9-16.978,31.225
				c1.385-3.869,2.128-7.388,5.479-10.187c3.178-2.654,6.817-4.674,9.822-7.648C130.972,246.355,130.662,232.587,140.636,227.181z"
                        />
                        <path style="fill:#09203F;" d="M245.908,426.884c0.604,0.048,1.125-0.155,1.642-0.645c2.271-2.154-0.322-6.791-2.039-9.859
				c-0.384-0.686-0.727-1.301-0.977-1.812c-0.196-0.401-0.382-0.899-0.597-1.476c-0.488-1.306-1.304-3.492-2.266-3.749
				c-0.396-0.105-0.89,0.169-1.276,0.463c-1.905,3.72-2.629,8.967,0.011,12.482C242.601,425.216,244.453,426.761,245.908,426.884z"
                        />
                        <path style="fill:#09203F;" d="M222.001,184.336c-0.401-0.221-1.059-0.449-2.139,0.105c-3.101,1.59-4.504,7.504-4.659,10.858
				c-0.375,8.088,4.607,14.376,10.352,20.228c-4.422-9.099-4.658-19.763-2.061-29.597
				C222.976,185.087,222.466,184.592,222.001,184.336z"/>
                        <path style="fill:#09203F;" d="M222,158.939c2.059-3.593,3.079-7.426,2.873-10.793c-0.304-4.983-3.837-8.748-7.253-12.39
				c-0.195-0.208-0.384-0.413-0.577-0.62c1.446,3.434,2.468,7.108,3.038,10.915c0.993,6.634-0.543,12.794-3.188,18.633
				C219.288,162.733,220.796,161.038,222,158.939z"/>
                        <path style="fill:#09203F;" d="M160.53,452.018c3.516-1.348,6.526-2.154,9.346-2.469c2.667-0.92,5.208-1.513,7.234-1.63
				c3.144-0.187,6.181,0.408,9.123,0.977c3.718,0.719,7.229,1.398,10.692,0.54c5.455-1.352,9.881-4.45,14.163-7.446
				c5.776-4.042,11.749-8.222,20.279-8.234c0.019,0,0.038,0,0.057,0c6.179,0,10.747,1.428,16.278,5.085
				c3.494,2.311,6.973,4.867,10.337,7.339c2.59,1.904,5.2,3.819,7.856,5.653c1.898-0.579,3.808-1.143,5.806-1.486
				c2.965-0.509,5.874-0.679,8.747-0.624c-0.559-0.324-1.116-0.649-1.677-0.97c-1.84-1.052-3.742-2.14-5.543-3.337
				c-1.892-1.259-3.68-2.447-3.465-4.001c0.174-1.259,1.533-1.838,2.54-2.163c5.759-1.861,12.789-1.025,21.488,2.556
				c0.918,0.378,1.821,0.784,2.71,1.189c0.803-0.42,2.035-0.562,3.468-0.708c0.694-0.071,1.412-0.145,1.964-0.251
				c1.542-0.296,3.109-0.979,4.624-1.64c0.473-0.206,0.943-0.411,1.412-0.605c1.365-0.564,2.715-1.193,4.021-1.802
				c3.424-1.596,6.964-3.245,10.95-3.791c4.258-0.588,8.993,0.021,12.988,1.666c2.893,1.191,5.395,3.652,7.815,6.032
				c1.329,1.308,2.585,2.543,3.867,3.541c1.51,1.176,3.52,2.54,5.872,3.699c6.022-1.05,11.481-2.271,18.063-0.001
				c-5.16-4.923-10.58-4.07-17.662-5.038c-8.051-1.1-10.267-6.888-16.009-11.994c-9.286-8.258-17.007,0.025-27.913,0.013
				c-11.311-0.012-18.784,6.83-24.966-5.736c-0.735-1.493-1.465-2.957-2.186-4.409c-1.387-0.436-2.691-0.851-3.756-1.246
				c-5.684-2.109-11.051-4.821-15.955-8.061c-18.549-12.257-36.211-34.619-33.854-56.948c0.107-1.014,0.223-2.05,0.341-3.102
				c0.931-8.317,1.986-17.745-0.501-25.022c-2.172-6.355-5.618-10.282-9.729-13.848c0.003,0.013,0.006,0.026,0.008,0.039
				c0.49,2.521,0.716,5.021,0.773,7.52c2.988,4.17,6.229,9.9,6.956,15.899c0.255,2.108,1.348,12.778-2.244,15.783l-0.713,0.596
				l-0.647-0.667c-1.403-1.448-2.112-3.848-2.798-6.169c-0.385-1.304-0.749-2.534-1.206-3.515c-0.494-1.059-1.012-2.114-1.537-3.16
				c-0.391,1.362-0.848,2.704-1.337,4.035c-0.332,3.556-0.569,6.987-0.255,10.528c0.682,7.682,2.972,11.303,7.675,17.203
				c4.664,5.853,6.241,11.526,7.389,19.345c1.146,7.807,1.703,16.786-2.854,24.2c-1.298,2.113-4.892,7.033-10.206,7.088
				c-0.028,0-0.057,0-0.085,0c-2.936,0-4.528-1.554-5.935-2.926c-0.302-0.295-0.592-0.575-0.886-0.834
				c-0.03,0.051-0.057,0.105-0.086,0.156c-8.837-0.021-19.443-4.553-25.71-6.971c-13.483-5.202-23.451,6.939-30.51,17.373
				c-3.707,5.478-7.49,9.91-12.191,13.583c3.001-0.214,5.988-0.867,9.074-2.265c2.845-1.288,5.238-3.181,7.699-5.224
				c2.604-3.544,5.066-7.14,8.46-10.125c6.99-6.149,16.446-1.755,22.765,5.86c-1.723-0.763-3.444-1.689-5.294-2.143
				c-3.736-0.917-5.621,0.047-9.227,0.88c-6.779,1.566-12.224,5.592-17.903,9.055c-1.752,1.341-3.606,2.583-5.675,3.52
				c-4.189,1.896-8.239,2.521-12.283,2.521c-0.696,0-1.393-0.036-2.089-0.069c-7.7,0.401-17.967,1.363-19.009,8.88
				c8.479-4.651,16.569-1.567,25.29-2.509c8.248-0.891,14.871-5.833,23.509-6.019C165.098,446.524,161.832,448.881,160.53,452.018z
				 M238.722,408.689l0.093-0.176l0.153-0.127c1.112-0.919,2.195-1.245,3.219-0.975c1.959,0.523,2.882,2.996,3.624,4.982
				c0.189,0.506,0.367,0.982,0.52,1.296c0.236,0.483,0.563,1.064,0.926,1.714c2.019,3.608,5.069,9.063,1.669,12.287
				c-0.841,0.798-1.793,1.201-2.836,1.201c-0.116,0-0.232-0.005-0.35-0.016c-2.767-0.232-5.283-3.186-6.935-5.386
				C235.597,419.215,236.451,412.976,238.722,408.689z"/>
                    </g>
                </g>
            </g>
        </g>
        <text x="180" y="120" font-family="Arial, Helvetica, sans-serif" font-size="60" fill="#27a337" font-weight="bold">EcoForest Group</text>
    </g>
</svg>